<?xml version="1.0" encoding="UTF-8" standalone="no" ?>
<!DOCTYPE svg PUBLIC "-//W3C//DTD SVG 1.1//EN" "http://www.w3.org/Graphics/SVG/1.1/DTD/svg11.dtd">
<svg xmlns="http://www.w3.org/2000/svg" xmlns:xlink="http://www.w3.org/1999/xlink" version="1.1" width="1480" height="480" viewBox="0 0 1480 480" xml:space="preserve">
<desc>Created with Fabric.js 5.2.4</desc>
<defs>
</defs>
<g transform="matrix(1 0 0 1 740 240)" id="3d8a0065-ff47-489c-a049-94d5510326df"  >
<rect style="stroke: none; stroke-width: 1; stroke-dasharray: none; stroke-linecap: butt; stroke-dashoffset: 0; stroke-linejoin: miter; stroke-miterlimit: 4; fill: rgb(255,255,255); fill-rule: nonzero; opacity: 1; visibility: hidden;" vector-effect="non-scaling-stroke"  x="-740" y="-240" rx="0" ry="0" width="1480" height="480" />
</g>
<g transform="matrix(Infinity NaN NaN Infinity 0 0)" id="26d6d633-d086-4bfd-a2b1-fc8b18a7fe68"  >
</g>
<g transform="matrix(1.54 0 0 1.54 740 240)"  >
<g style="" vector-effect="non-scaling-stroke"   >
		<g transform="matrix(1 0 0 1 -339.1 0)"  >
<path style="stroke: none; stroke-width: 1; stroke-dasharray: none; stroke-linecap: butt; stroke-dashoffset: 0; stroke-linejoin: miter; stroke-miterlimit: 4; fill: rgb(237,34,36); fill-rule: nonzero; opacity: 1;" vector-effect="non-scaling-stroke"  transform=" translate(-135.4, -119.65)" d="M 170.5 0 L 270.8 239.3 L 270.8 0 L 170.5 0 z M 0 0 L 0 239.3 L 100.3 0 L 0 0 z M 91.7 190.5 L 137.5 190.5 L 157.6 239.2 L 199.1 239.2 L 134.7 87.4 L 91.7 190.5 z" stroke-linecap="round" />
</g>
		<g transform="matrix(1 0 0 1 -10.24 3.55)"  >
<path style="stroke: none; stroke-width: 1; stroke-dasharray: none; stroke-linecap: butt; stroke-dashoffset: 0; stroke-linejoin: miter; stroke-miterlimit: 4; fill: rgb(45,46,45); fill-rule: nonzero; opacity: 1;" vector-effect="non-scaling-stroke"  transform=" translate(-464.26, -123.2)" d="M 438.9 154.4 L 427.9 187.5 C 427.5 188.7 426.9 189.1 425.7 189.1 L 405.59999999999997 189.1 C 404.4 189.1 403.99999999999994 188.5 404.2 187.1 L 445.59999999999997 69.39999999999999 C 446.4 67.39999999999999 446.99999999999994 65.39999999999999 447.4 58.599999999999994 C 447.4 57.8 447.79999999999995 57.199999999999996 448.59999999999997 57.199999999999996 L 476.49999999999994 57.199999999999996 C 477.49999999999994 57.199999999999996 477.69999999999993 57.4 477.8999999999999 58.4 L 524.3 187.4 C 524.5 188.6 524.3 189.20000000000002 523.0999999999999 189.20000000000002 L 500.5999999999999 189.20000000000002 C 499.5999999999999 189.20000000000002 498.9999999999999 188.8 498.5999999999999 188.00000000000003 L 486.8999999999999 154.50000000000003 L 438.9 154.50000000000003 z M 480.5 132.5 C 476.3 119.2 466.8 91.3 462.8 77.3 L 462.6 77.3 C 459.40000000000003 90.8 451.3 114.3 445.3 132.5 L 480.5 132.5 z" stroke-linecap="round" />
</g>
		<g transform="matrix(1 0 0 1 102.3 -1.05)"  >
<path style="stroke: none; stroke-width: 1; stroke-dasharray: none; stroke-linecap: butt; stroke-dashoffset: 0; stroke-linejoin: miter; stroke-miterlimit: 4; fill: rgb(45,46,45); fill-rule: nonzero; opacity: 1;" vector-effect="non-scaling-stroke"  transform=" translate(-576.8, -118.6)" d="M 531.5 140.5 C 531.5 111.4 553.2 88.1 588.6 88.1 C 591.4 88.1 593.8000000000001 88.3 597.2 88.69999999999999 L 597.2 47.5 C 597.2 46.5 597.6 46.1 598.4000000000001 46.1 L 620.3000000000001 46.1 C 621.3000000000001 46.1 621.3000000000001 46.5 621.3000000000001 47.300000000000004 L 621.3000000000001 168.6 C 621.3000000000001 172.6 621.7 177.79999999999998 622.1 181.5 C 622.1 182.5 621.9 182.9 620.9 183.3 C 607.8 188.9 595 191.10000000000002 582.9 191.10000000000002 C 553.8 191.2 531.5 174.3 531.5 140.5 z M 597.2 109.8 C 594.6 108.8 591.4000000000001 108.39999999999999 587.8000000000001 108.39999999999999 C 569.9000000000001 108.39999999999999 556.5000000000001 119.89999999999999 556.5000000000001 139.29999999999998 C 556.5000000000001 161.2 569.6000000000001 170.2 585.6000000000001 170.2 C 589.6000000000001 170.2 593.6000000000001 169.79999999999998 597.3000000000002 168.6 L 597.3000000000002 109.8 z" stroke-linecap="round" />
</g>
		<g transform="matrix(1 0 0 1 214.4 19.95)"  >
<path style="stroke: none; stroke-width: 1; stroke-dasharray: none; stroke-linecap: butt; stroke-dashoffset: 0; stroke-linejoin: miter; stroke-miterlimit: 4; fill: rgb(45,46,45); fill-rule: nonzero; opacity: 1;" vector-effect="non-scaling-stroke"  transform=" translate(-688.9, -139.6)" d="M 737.2 139.1 C 737.2 170.2 717.3000000000001 191.1 689 191.1 C 655.4 191.1 640.6 165.2 640.6 139.7 C 640.6 111.19999999999999 659.3000000000001 88.1 689.4 88.1 C 720.4 88.1 737.2 111.6 737.2 139.1 z M 665.1 139.3 C 665.1 157.8 674.1 170.60000000000002 689.4 170.60000000000002 C 701.9 170.60000000000002 712.5 160.40000000000003 712.5 139.70000000000002 C 712.5 123.00000000000001 705.3 108.40000000000002 688.2 108.40000000000002 C 674.8 108.4 665.1 120.2 665.1 139.3 z" stroke-linecap="round" />
</g>
		<g transform="matrix(1 0 0 1 326.7 -1.05)"  >
<path style="stroke: none; stroke-width: 1; stroke-dasharray: none; stroke-linecap: butt; stroke-dashoffset: 0; stroke-linejoin: miter; stroke-miterlimit: 4; fill: rgb(45,46,45); fill-rule: nonzero; opacity: 1;" vector-effect="non-scaling-stroke"  transform=" translate(-801.2, -118.6)" d="M 778.6 46.1 C 780 46.1 780.4 46.300000000000004 780.4 47.7 L 780.6 90.9 C 786 89.10000000000001 792.3000000000001 88.10000000000001 798.9 88.10000000000001 C 827.8 88.10000000000001 846.3 108.60000000000001 846.3 135.5 C 846.3 172.7 817.4 191.1 787.5999999999999 191.1 C 777.1999999999999 191.1 767.0999999999999 189.7 757.4999999999999 186.7 C 756.6999999999999 186.5 756.0999999999999 185.5 756.0999999999999 184.89999999999998 L 756.0999999999999 47.5 C 756.0999999999999 46.5 756.6999999999999 46.1 757.4999999999999 46.1 L 778.6 46.1 z M 794.7 108.8 C 787.7 108.8 783.9000000000001 109.8 780.6 111 L 780.6 169.7 C 783.4 170.5 786.4 170.7 789.8000000000001 170.7 C 806.3000000000001 170.7 821.5000000000001 160.29999999999998 821.5000000000001 138 C 821.6 118.8 810.6 108.8 794.7 108.8 z" stroke-linecap="round" />
</g>
		<g transform="matrix(1 0 0 1 430.3 20.05)"  >
<path style="stroke: none; stroke-width: 1; stroke-dasharray: none; stroke-linecap: butt; stroke-dashoffset: 0; stroke-linejoin: miter; stroke-miterlimit: 4; fill: rgb(45,46,45); fill-rule: nonzero; opacity: 1;" vector-effect="non-scaling-stroke"  transform=" translate(-904.8, -139.7)" d="M 885.1 145.2 C 885.7 159.29999999999998 894.9 170.5 915.4 170.5 C 924.4 170.5 932.6999999999999 168.9 940.3 165.7 C 940.9 165.29999999999998 941.5 165.5 941.5 166.5 L 941.5 183.2 C 941.5 184.39999999999998 941.1 185 940.3 185.39999999999998 C 932.6999999999999 188.99999999999997 923.8 191.2 910.1999999999999 191.2 C 873.5999999999999 191.2 860.5999999999999 165.5 860.5999999999999 140.79999999999998 C 860.5999999999999 112.89999999999998 877.4999999999999 88.19999999999999 907.8 88.19999999999999 C 937.5 88.19999999999999 949 111.49999999999999 949 130.6 C 949 136.2 948.8 140.79999999999998 948.2 143.1 C 948 143.9 947.6 144.29999999999998 946.6 144.5 C 943.8000000000001 145.1 935.8000000000001 145.3 925.9 145.3 L 885.1 145.3 z M 915 127.9 C 922.6 127.9 925.2 127.9 926 127.7 C 926 127.10000000000001 926 126.3 926 126.10000000000001 C 926 120.30000000000001 922 107.4 906.7 107.4 C 892.8000000000001 107.4 886.6 118 885 127.9 L 915 127.9 z" stroke-linecap="round" />
</g>
</g>
</g>
</svg>