<?xml version="1.0" encoding="UTF-8" standalone="no" ?>
<!DOCTYPE svg PUBLIC "-//W3C//DTD SVG 1.1//EN" "http://www.w3.org/Graphics/SVG/1.1/DTD/svg11.dtd">
<svg xmlns="http://www.w3.org/2000/svg" xmlns:xlink="http://www.w3.org/1999/xlink" version="1.1" width="1480" height="480" viewBox="0 0 1480 480" xml:space="preserve">
<desc>Created with Fabric.js 5.2.4</desc>
<defs>
</defs>
<rect x="0" y="0" width="100%" height="100%" fill="transparent"></rect>
<g transform="matrix(1 0 0 1 740 240)" id="fb2ba89c-0dda-4deb-9b8b-e2518fffc131"  >
<rect style="stroke: none; stroke-width: 1; stroke-dasharray: none; stroke-linecap: butt; stroke-dashoffset: 0; stroke-linejoin: miter; stroke-miterlimit: 4; fill: rgb(255,255,255); fill-rule: nonzero; opacity: 1; visibility: hidden;" vector-effect="non-scaling-stroke"  x="-740" y="-240" rx="0" ry="0" width="1480" height="480" />
</g>
<g transform="matrix(Infinity NaN NaN Infinity 0 0)" id="4b7e9ca3-fec8-4c56-80c7-c5a6fdc950a9"  >
</g>
<g transform="matrix(0.65 0 0 0.62 740 240)"  >
<g style="" vector-effect="non-scaling-stroke"   >
		<g transform="matrix(12.97 0 0 12.97 0 0)"  >
<path style="stroke: none; stroke-width: 1; stroke-dasharray: none; stroke-linecap: butt; stroke-dashoffset: 0; stroke-linejoin: miter; stroke-miterlimit: 4; fill: rgb(255,255,255); fill-opacity: 0; fill-rule: evenodd; opacity: 1;" vector-effect="non-scaling-stroke"  transform=" translate(-96.38, -96.38)" d="M 0 0 L 192.756 0 L 192.756 192.756 L 0 192.756 L 0 0 z" stroke-linecap="round" />
</g>
		<g transform="matrix(12.97 0 0 12.97 0.01 0.01)"  >
<path style="stroke: none; stroke-width: 1; stroke-dasharray: none; stroke-linecap: butt; stroke-dashoffset: 0; stroke-linejoin: miter; stroke-miterlimit: 4; fill: rgb(40,83,156); fill-rule: evenodd; opacity: 1;" vector-effect="non-scaling-stroke"  transform=" translate(-96.38, -96.38)" d="M 40.362 84.923 L 32.176 84.923 L 32.176 103.971 L 40.362 95.785 L 40.362 84.923 z M 21.317 75.078 L 21.317 83.274 L 40.362 83.274 L 32.176 75.078 L 21.317 75.078 z M 30.524 103.971 L 30.524 95.785 L 11.475 95.785 L 19.667 103.971 L 30.524 103.971 z M 11.481 94.134 L 19.667 94.134 L 19.667 75.077 L 11.481000000000002 83.26599999999999 L 11.481000000000002 94.13399999999999 z M 68.034 100.93 C 68.034 102.01400000000001 67.43400000000001 103.61200000000001 64.56800000000001 103.61200000000001 L 61.11100000000001 103.61200000000001 L 61.11100000000001 98.507 L 64.56800000000001 98.507 C 67.43400000000001 98.506 68.034 99.86500000000001 68.034 100.93 z M 64.23100000000001 95.775 L 56.275000000000006 95.775 L 56.275000000000006 112.18 L 61.11000000000001 112.18 L 61.11000000000001 106.36800000000001 L 65.247 106.36800000000001 C 70.016 106.36800000000001 72.864 104.046 72.864 100.99900000000001 C 72.86500000000001 97.61300000000001 70.35300000000001 95.775 64.23100000000001 95.775 z M 175.529 99.219 C 173.70499999999998 99.219 171.941 99.883 170.96699999999998 100.80099999999999 L 170.90499999999997 100.80099999999999 L 170.90499999999997 99.48499999999999 L 166.91299999999998 99.48499999999999 L 166.91299999999998 112.17999999999998 L 170.968 112.17999999999998 L 170.968 103.48499999999999 C 171.902 102.38899999999998 173.206 101.99699999999999 174.28199999999998 101.99699999999999 C 177.17799999999997 101.99699999999999 177.225 103.85599999999998 177.225 106.28199999999998 L 177.225 112.17999999999998 L 181.28199999999998 112.17999999999998 L 181.28199999999998 104.95499999999998 C 181.28099999999998 102.14999999999998 180.56599999999997 99.21899999999998 175.529 99.21899999999998 z M 87.739 107.447 L 83.553 95.775 L 75.843 95.775 L 75.843 112.18 L 80.50800000000001 112.18 L 80.50800000000001 99.193 L 80.78200000000001 99.193 L 85.55300000000001 112.17999999999999 L 89.92500000000001 112.17999999999999 L 94.69000000000001 99.193 L 94.97100000000002 99.193 L 94.97100000000002 112.17999999999999 L 99.64600000000002 112.17999999999999 L 99.64600000000002 95.775 L 91.96500000000002 95.775 L 87.73900000000002 107.447 z M 114.535 105.822 C 114.535 108.297 113.25399999999999 109.988 110.582 109.988 C 107.91999999999999 109.988 106.621 108.297 106.621 105.822 C 106.621 103.33800000000001 107.92 101.634 110.582 101.634 C 113.25399999999999 101.635 114.535 103.338 114.535 105.822 z M 118.854 105.822 C 118.854 101.302 115.231 99.054 110.583 99.054 C 105.937 99.054 102.31 101.302 102.31 105.822 C 102.31 110.318 105.937 112.578 110.583 112.578 C 115.23 112.578 118.854 110.318 118.854 105.822 z M 143.328 99.482 L 143.328 100.699 L 143.267 100.699 C 142.39 99.83 141.017 99.219 138.607 99.219 C 133.898 99.219 131.849 102.64699999999999 131.849 105.75399999999999 C 131.849 109.41 133.956 112.16199999999999 138.32399999999998 112.31099999999999 C 140.55399999999997 112.407 142.277 111.43199999999999 143.08399999999997 110.663 L 143.14299999999997 110.663 L 143.14299999999997 111.194 C 143.14299999999997 113.151 142.37699999999998 115.055 138.40299999999996 115.055 C 136.81499999999997 115.055 135.03599999999997 114.79100000000001 133.34999999999997 113.977 L 133.34999999999997 116.92 C 135.00799999999995 117.47500000000001 136.85799999999998 117.68 139.00399999999996 117.68 C 145.60399999999996 117.68 147.15599999999995 114.09800000000001 147.15599999999995 110.68 L 147.15599999999995 99.482 L 143.32799999999995 99.482 z M 139.55700000000002 109.627 C 137.205 109.627 136.073 107.744 136.073 105.809 C 136.073 103.875 136.993 101.823 139.702 101.823 C 142.089 101.823 143.165 103.577 143.165 105.737 C 143.164 107.576 142.19899999999998 109.627 139.557 109.627 z M 163.664 104.195 C 163.664 100.925 161.635 99.21799999999999 157.016 99.21799999999999 C 155.51 99.21799999999999 153.332 99.386 151.43599999999998 99.898 L 151.43599999999998 102.43299999999999 C 152.915 101.898 154.68399999999997 101.63399999999999 156.12399999999997 101.63399999999999 C 158.16899999999995 101.63399999999999 159.73899999999998 101.89399999999999 159.73899999999998 104.44299999999998 L 157.74699999999999 104.44299999999998 C 156.052 104.44299999999998 153.724 104.60699999999999 152.45399999999998 105.02899999999998 C 150.98299999999998 105.51899999999998 149.58299999999997 106.56599999999999 149.58299999999997 108.42199999999998 C 149.58299999999997 111.40399999999998 152.19199999999998 112.47899999999998 155.12599999999998 112.47899999999998 C 157.28999999999996 112.47899999999998 158.81199999999998 111.99699999999999 159.91899999999998 110.90699999999998 L 159.97799999999998 110.90699999999998 L 159.97799999999998 112.17999999999998 L 163.66599999999997 112.17999999999998 L 163.66599999999997 104.19499999999998 L 163.66399999999996 104.19499999999998 z M 159.738 108.764 C 158.445 109.746 157.131 110.03 155.967 110.078 C 154.58 110.12100000000001 153.61700000000002 109.682 153.61700000000002 108.361 C 153.61700000000002 106.806 155.86700000000002 106.547 158.34000000000003 106.547 L 159.73800000000003 106.547 L 159.73800000000003 108.764 z M 47.402 95.775 L 47.402 105.748 C 47.402 108 46.370000000000005 109.38900000000001 44.066 109.42200000000001 C 43.324000000000005 109.43400000000001 41.752 109.38900000000001 40.379000000000005 109.09000000000002 L 40.379000000000005 112.20500000000001 C 41.766000000000005 112.418 43.452000000000005 112.47600000000001 44.827000000000005 112.47600000000001 C 49.42100000000001 112.47600000000001 52.24000000000001 110.04800000000002 52.24000000000001 106.29400000000001 L 52.24000000000001 95.77400000000002 L 47.40200000000001 95.77400000000002 L 47.40200000000001 95.77500000000002 z M 129.621 99.219 C 127.89600000000002 99.219 126.28300000000002 99.66399999999999 125.28500000000001 101.41399999999999 L 125.22300000000001 101.41399999999999 L 125.22300000000001 99.48399999999998 L 121.36400000000002 99.48399999999998 L 121.36400000000002 112.17899999999997 L 125.56300000000002 112.17899999999997 L 125.56300000000002 105.97399999999998 C 125.56300000000002 104.64599999999997 125.78200000000001 103.84299999999998 126.06100000000002 103.38399999999997 C 126.52200000000002 102.61599999999997 127.09000000000002 102.19099999999997 128.19400000000002 102.02899999999997 C 128.74900000000002 101.95299999999997 129.561 102.02099999999997 130.132 102.34699999999997 L 132.013 99.66299999999997 C 131.232 99.36899999999997 130.576 99.21899999999997 129.621 99.21899999999997 z" stroke-linecap="round" />
</g>
</g>
</g>
</svg>