<!-- Generator: Adobe Illustrator 14.0.0, SVG Export Plug-In . SVG Version: 6.00 Build 43363)  -->
<svg version="1.1" id="Layer_1" xmlns="http://www.w3.org/2000/svg" xmlns:xlink="http://www.w3.org/1999/xlink" x="0px" y="0px"
	 width="370px" height="77px" viewBox="0 0 370 77" enable-background="new 0 0 370 77" xml:space="preserve">
<g>
	<path fill="#73BC44" d="M133.642,59.874c0-0.176,0.058-0.306,0.173-0.394c0.115-0.088,0.28-0.17,0.495-0.251l1.921-0.666
		c0.028-0.006,0.056-0.011,0.079-0.011h0.073c0.209,0,0.348,0.063,0.419,0.185c0.07,0.119,0.106,0.279,0.106,0.477L136.9,61.88
		h1.413c0.181,0,0.327,0.055,0.44,0.16c0.113,0.108,0.169,0.27,0.169,0.482v1.633c0,0.238-0.056,0.411-0.169,0.521
		c-0.113,0.109-0.259,0.164-0.44,0.164H136.9l0.009,6.806c0,0.215-0.063,0.374-0.188,0.485c-0.124,0.11-0.295,0.165-0.515,0.165
		h-1.913c-0.434,0-0.652-0.217-0.652-0.65l-0.009-6.806h-0.617c-0.434,0-0.652-0.227-0.652-0.685v-1.633
		c0-0.429,0.218-0.643,0.652-0.643h0.617L133.642,59.874z"/>
	<path fill="#73BC44" d="M140.92,62.176c0-0.095,0.021-0.188,0.063-0.276c0.043-0.086,0.095-0.155,0.157-0.207
		c0.146-0.093,0.298-0.142,0.456-0.142h1.279c0.107,0,0.191,0.02,0.254,0.06c0.063,0.038,0.114,0.09,0.157,0.151
		c0.042,0.062,0.078,0.132,0.109,0.212c0.03,0.078,0.07,0.158,0.115,0.235c0.01,0.023,0.033,0.079,0.067,0.165
		c0.034,0.09,0.071,0.185,0.109,0.289c0.041,0.104,0.078,0.203,0.114,0.295c0.037,0.093,0.062,0.152,0.073,0.183
		c0.169-0.188,0.33-0.382,0.486-0.588c0.155-0.206,0.32-0.396,0.495-0.571c0.174-0.176,0.37-0.318,0.583-0.431
		c0.214-0.112,0.469-0.171,0.761-0.171c0.307,0,0.578,0.023,0.818,0.069c0.239,0.045,0.466,0.111,0.682,0.198
		c0.214,0.086,0.425,0.198,0.637,0.334c0.211,0.134,0.441,0.295,0.689,0.475c0.39,0.209,0.463,0.521,0.22,0.931l-0.77,1.312
		c-0.113,0.169-0.25,0.273-0.413,0.314c-0.165,0.037-0.343,0.013-0.534-0.079c-0.242-0.235-0.49-0.412-0.741-0.527
		c-0.25-0.115-0.537-0.172-0.858-0.172c-0.221,0-0.415,0.029-0.58,0.091c-0.167,0.063-0.317,0.148-0.454,0.264
		c-0.134,0.113-0.263,0.248-0.381,0.405c-0.119,0.156-0.237,0.333-0.355,0.523v6.128c0,0.213-0.053,0.374-0.157,0.485
		c-0.104,0.112-0.277,0.165-0.521,0.165h-1.903c-0.44,0-0.66-0.217-0.66-0.65V62.176z"/>
	<path fill="#73BC44" d="M162.378,71.671c0,0.096-0.017,0.188-0.05,0.273c-0.034,0.089-0.091,0.157-0.169,0.207
		c-0.062,0.063-0.135,0.104-0.219,0.119c-0.085,0.018-0.157,0.025-0.222,0.025h-1.666c-0.12,0-0.215-0.015-0.29-0.045
		c-0.072-0.033-0.133-0.075-0.177-0.132c-0.045-0.058-0.083-0.125-0.113-0.208c-0.032-0.08-0.064-0.172-0.099-0.266l-0.246-0.637
		c-0.15,0.153-0.318,0.315-0.499,0.489c-0.179,0.172-0.378,0.33-0.595,0.478c-0.219,0.146-0.453,0.27-0.708,0.368
		c-0.253,0.099-0.524,0.148-0.812,0.148c-0.514,0-1.006-0.066-1.476-0.196c-0.472-0.13-0.912-0.314-1.322-0.554
		c-0.409-0.239-0.781-0.528-1.112-0.861c-0.333-0.336-0.619-0.712-0.858-1.123c-0.241-0.411-0.425-0.856-0.554-1.332
		c-0.13-0.477-0.196-0.975-0.196-1.494c0-0.784,0.145-1.513,0.433-2.187c0.287-0.674,0.679-1.262,1.176-1.762
		c0.497-0.497,1.082-0.892,1.753-1.175c0.67-0.284,1.391-0.428,2.157-0.428c0.349,0,0.671,0.054,0.965,0.158s0.56,0.239,0.799,0.408
		c0.24,0.17,0.457,0.362,0.653,0.575c0.192,0.216,0.366,0.432,0.519,0.652l0.33-1.024c0.057-0.141,0.104-0.255,0.14-0.342
		c0.036-0.089,0.077-0.152,0.118-0.196c0.042-0.042,0.096-0.069,0.157-0.083c0.062-0.017,0.15-0.023,0.263-0.023h1.259
		c0.064,0,0.137,0.009,0.222,0.027c0.083,0.018,0.157,0.057,0.219,0.118c0.079,0.062,0.135,0.133,0.169,0.212
		c0.034,0.08,0.05,0.168,0.05,0.269V71.671z M154.043,66.932c0,0.373,0.059,0.719,0.175,1.045c0.114,0.325,0.279,0.606,0.494,0.843
		c0.214,0.236,0.472,0.425,0.775,0.561c0.302,0.141,0.635,0.208,1.002,0.208c0.377,0,0.729-0.067,1.054-0.208
		c0.325-0.136,0.607-0.324,0.846-0.561c0.241-0.236,0.428-0.518,0.563-0.843c0.135-0.326,0.204-0.672,0.204-1.045
		c0-0.359-0.069-0.706-0.204-1.032c-0.135-0.327-0.322-0.616-0.563-0.861c-0.238-0.249-0.521-0.445-0.846-0.591
		c-0.325-0.143-0.676-0.215-1.054-0.215c-0.367,0-0.7,0.072-1.002,0.215c-0.303,0.146-0.561,0.342-0.775,0.591
		c-0.215,0.245-0.38,0.534-0.494,0.861C154.102,66.226,154.043,66.572,154.043,66.932"/>
	<path fill="#73BC44" d="M165.291,61.702c0.074-0.063,0.149-0.103,0.231-0.119c0.083-0.017,0.161-0.025,0.232-0.025h1.28
		c0.102,0,0.188,0.018,0.261,0.057c0.074,0.034,0.135,0.084,0.186,0.146c0.051,0.062,0.092,0.131,0.124,0.21
		c0.029,0.079,0.059,0.161,0.087,0.245l0.263,1.081c0.084-0.175,0.206-0.373,0.367-0.596s0.366-0.43,0.614-0.623
		c0.25-0.195,0.543-0.358,0.884-0.491c0.341-0.131,0.737-0.197,1.19-0.197c0.642,0,1.227,0.123,1.751,0.371
		c0.526,0.247,0.972,0.586,1.343,1.012c0.369,0.427,0.655,0.927,0.858,1.5c0.204,0.571,0.305,1.181,0.305,1.831v5.541
		c0,0.214-0.046,0.375-0.141,0.486c-0.093,0.112-0.241,0.165-0.445,0.165h-1.954c-0.242,0-0.409-0.04-0.5-0.123
		c-0.089-0.08-0.135-0.24-0.135-0.478v-5.508c0-0.243-0.055-0.472-0.165-0.69c-0.11-0.216-0.255-0.41-0.435-0.574
		c-0.181-0.167-0.387-0.3-0.614-0.394c-0.228-0.097-0.462-0.146-0.697-0.146c-0.204,0-0.411,0.046-0.622,0.135
		c-0.212,0.093-0.407,0.216-0.585,0.378c-0.177,0.161-0.328,0.351-0.449,0.566c-0.119,0.216-0.188,0.454-0.207,0.707v5.501
		c0,0.096-0.018,0.19-0.055,0.286c-0.037,0.098-0.091,0.171-0.165,0.22c-0.074,0.046-0.143,0.078-0.208,0.096
		c-0.065,0.015-0.139,0.023-0.222,0.023h-1.915c-0.242,0-0.417-0.059-0.523-0.178c-0.108-0.117-0.161-0.275-0.161-0.474v-9.462
		c0-0.107,0.024-0.205,0.071-0.296c0.049-0.09,0.115-0.159,0.199-0.213L165.291,61.702z"/>
	<path fill="#73BC44" d="M179.566,68.954c0.151,0.152,0.317,0.28,0.495,0.385c0.178,0.105,0.349,0.19,0.511,0.255
		c0.165,0.063,0.307,0.111,0.433,0.138c0.123,0.03,0.209,0.041,0.253,0.041c0.108,0,0.243-0.003,0.411-0.011
		c0.167-0.007,0.327-0.033,0.477-0.075c0.152-0.042,0.284-0.113,0.393-0.208c0.111-0.095,0.167-0.232,0.167-0.405
		c0-0.159-0.031-0.283-0.092-0.377c-0.064-0.094-0.152-0.173-0.272-0.238c-0.119-0.063-0.264-0.121-0.437-0.172
		c-0.172-0.051-0.365-0.11-0.579-0.178c-0.677-0.181-1.235-0.397-1.676-0.651c-0.44-0.255-0.788-0.537-1.045-0.85
		c-0.257-0.315-0.436-0.652-0.536-1.011c-0.102-0.363-0.154-0.745-0.154-1.145c0-0.467,0.095-0.894,0.279-1.278
		c0.187-0.385,0.453-0.71,0.797-0.985c0.343-0.274,0.755-0.485,1.234-0.634c0.48-0.149,1.014-0.226,1.602-0.226
		c0.354,0,0.688,0.03,0.998,0.09s0.605,0.152,0.888,0.277c0.283,0.13,0.557,0.292,0.825,0.492c0.267,0.2,0.534,0.439,0.8,0.715
		c0.095,0.111,0.144,0.219,0.146,0.316c0.004,0.101-0.06,0.205-0.188,0.317c-0.221,0.183-0.43,0.36-0.632,0.536
		c-0.199,0.174-0.408,0.368-0.622,0.584c-0.066,0.055-0.135,0.09-0.202,0.104c-0.069,0.015-0.134,0.013-0.195-0.004
		c-0.063-0.019-0.122-0.046-0.178-0.086c-0.057-0.04-0.106-0.088-0.152-0.145c-0.198-0.219-0.423-0.368-0.677-0.443
		c-0.254-0.077-0.492-0.113-0.71-0.113c-0.277,0-0.497,0.047-0.662,0.143c-0.162,0.095-0.238,0.243-0.226,0.441
		c0.01,0.147,0.066,0.26,0.165,0.341c0.098,0.083,0.219,0.149,0.364,0.199c0.143,0.052,0.295,0.094,0.456,0.123
		c0.16,0.03,0.309,0.067,0.444,0.104c0.509,0.166,0.974,0.344,1.396,0.536c0.424,0.19,0.791,0.427,1.1,0.705
		c0.31,0.279,0.554,0.615,0.725,1.001c0.174,0.393,0.258,0.865,0.258,1.423c0,0.561-0.109,1.057-0.333,1.5
		c-0.224,0.438-0.531,0.808-0.92,1.107c-0.388,0.299-0.851,0.527-1.382,0.686c-0.533,0.158-1.109,0.237-1.724,0.237
		c-0.349,0-0.704-0.031-1.065-0.094c-0.361-0.062-0.712-0.161-1.05-0.3c-0.339-0.14-0.661-0.316-0.965-0.533
		c-0.304-0.218-0.575-0.481-0.813-0.792c-0.062-0.079-0.108-0.162-0.139-0.25s-0.045-0.173-0.043-0.258
		c0.003-0.084,0.02-0.162,0.052-0.232c0.032-0.071,0.081-0.132,0.147-0.184l1.093-1.091c0.134-0.111,0.255-0.15,0.358-0.119
		C179.269,68.7,179.401,68.796,179.566,68.954"/>
	<path fill="#73BC44" d="M189.442,61.703c0-0.525,0.113-1.02,0.338-1.481c0.226-0.463,0.525-0.867,0.905-1.215
		c0.377-0.347,0.813-0.621,1.302-0.82c0.492-0.2,1.005-0.301,1.541-0.301h0.171c0.19,0,0.338,0.057,0.442,0.172
		c0.104,0.116,0.156,0.276,0.156,0.479v1.618c0,0.209-0.055,0.381-0.164,0.521c-0.11,0.138-0.257,0.207-0.435,0.207h-0.171
		c-0.118,0-0.23,0.02-0.337,0.062c-0.109,0.044-0.206,0.102-0.289,0.174c-0.084,0.075-0.152,0.16-0.202,0.259
		c-0.051,0.099-0.078,0.207-0.078,0.327v0.971h1.33c0.19,0,0.339,0.052,0.443,0.156c0.105,0.104,0.158,0.271,0.158,0.498v1.549
		c0,0.241-0.053,0.419-0.158,0.531c-0.104,0.113-0.253,0.169-0.443,0.169h-1.33v6.067c0,0.214-0.071,0.375-0.216,0.486
		c-0.144,0.112-0.3,0.165-0.47,0.165h-1.828c-0.203,0-0.364-0.063-0.484-0.188c-0.123-0.126-0.182-0.282-0.182-0.463v-6.067h-0.874
		c-0.197,0-0.355-0.056-0.476-0.169c-0.123-0.112-0.184-0.29-0.184-0.531v-1.549c0-0.228,0.061-0.394,0.184-0.498
		c0.12-0.104,0.278-0.156,0.476-0.156h0.874V61.703z"/>
	<path fill="#73BC44" d="M196.083,66.932c0-0.519,0.066-1.019,0.198-1.496c0.132-0.48,0.318-0.927,0.558-1.333
		c0.24-0.41,0.528-0.782,0.864-1.119c0.336-0.335,0.709-0.621,1.123-0.856c0.41-0.238,0.854-0.422,1.33-0.551
		c0.477-0.131,0.977-0.195,1.494-0.195c0.768,0,1.488,0.144,2.162,0.428c0.674,0.283,1.26,0.678,1.76,1.175
		c0.5,0.5,0.896,1.088,1.186,1.762c0.291,0.674,0.436,1.402,0.436,2.187c0,0.52-0.068,1.018-0.199,1.494
		c-0.133,0.476-0.316,0.921-0.557,1.332c-0.242,0.411-0.529,0.787-0.865,1.123c-0.334,0.333-0.707,0.622-1.119,0.861
		s-0.854,0.424-1.324,0.554c-0.473,0.13-0.963,0.196-1.479,0.196c-0.518,0-1.018-0.066-1.494-0.196s-0.92-0.314-1.33-0.554
		c-0.414-0.239-0.787-0.528-1.123-0.861c-0.336-0.336-0.624-0.712-0.864-1.123c-0.239-0.411-0.426-0.856-0.558-1.332
		C196.15,67.949,196.083,67.451,196.083,66.932 M199.172,66.932c0,0.373,0.057,0.719,0.172,1.045
		c0.117,0.325,0.279,0.606,0.49,0.843c0.213,0.236,0.469,0.425,0.771,0.561c0.303,0.141,0.643,0.208,1.02,0.208
		c0.367,0,0.699-0.067,0.994-0.208c0.295-0.136,0.549-0.324,0.752-0.561c0.207-0.236,0.365-0.518,0.475-0.843
		c0.111-0.326,0.166-0.672,0.166-1.045c0-0.359-0.055-0.706-0.166-1.032c-0.109-0.327-0.268-0.616-0.475-0.861
		c-0.203-0.249-0.457-0.445-0.752-0.591c-0.295-0.143-0.627-0.215-0.994-0.215c-0.377,0-0.717,0.072-1.02,0.215
		c-0.303,0.146-0.559,0.342-0.771,0.591c-0.211,0.245-0.373,0.534-0.49,0.861C199.229,66.226,199.172,66.572,199.172,66.932"/>
	<path fill="#73BC44" d="M209.537,62.176c0-0.095,0.021-0.188,0.064-0.276c0.041-0.086,0.096-0.155,0.156-0.207
		c0.148-0.093,0.299-0.142,0.457-0.142h1.277c0.109,0,0.191,0.02,0.254,0.06c0.063,0.038,0.115,0.09,0.156,0.151
		c0.043,0.062,0.08,0.132,0.111,0.212c0.029,0.078,0.068,0.158,0.113,0.235c0.01,0.023,0.033,0.079,0.066,0.165
		c0.037,0.09,0.074,0.185,0.111,0.289c0.039,0.104,0.078,0.203,0.113,0.295c0.037,0.093,0.063,0.152,0.072,0.183
		c0.17-0.188,0.332-0.382,0.488-0.588c0.154-0.206,0.318-0.396,0.494-0.571c0.176-0.176,0.371-0.318,0.584-0.431
		s0.467-0.171,0.762-0.171c0.305,0,0.576,0.023,0.818,0.069c0.238,0.045,0.467,0.111,0.682,0.198
		c0.213,0.086,0.426,0.198,0.635,0.334c0.215,0.134,0.441,0.295,0.689,0.475c0.391,0.209,0.465,0.521,0.223,0.931l-0.771,1.312
		c-0.113,0.169-0.25,0.273-0.412,0.314c-0.166,0.037-0.344,0.013-0.535-0.079c-0.242-0.235-0.49-0.412-0.74-0.527
		s-0.537-0.172-0.859-0.172c-0.219,0-0.412,0.029-0.578,0.091c-0.168,0.063-0.316,0.148-0.455,0.264
		c-0.133,0.113-0.262,0.248-0.381,0.405c-0.117,0.156-0.234,0.333-0.355,0.523v6.128c0,0.213-0.051,0.374-0.154,0.485
		c-0.105,0.112-0.279,0.165-0.521,0.165h-1.904c-0.439,0-0.66-0.217-0.66-0.65V62.176z"/>
	<path fill="#73BC44" d="M220.158,61.702c0.074-0.063,0.148-0.103,0.234-0.119c0.08-0.017,0.158-0.025,0.23-0.025h1.277
		c0.104,0,0.189,0.018,0.264,0.057c0.072,0.034,0.135,0.084,0.186,0.146c0.051,0.062,0.092,0.131,0.123,0.21
		c0.029,0.079,0.061,0.161,0.088,0.245l0.262,1.081c0.086-0.175,0.188-0.373,0.309-0.596c0.123-0.223,0.283-0.43,0.484-0.623
		c0.199-0.195,0.451-0.358,0.752-0.491c0.303-0.131,0.68-0.197,1.129-0.197c0.725,0,1.354,0.152,1.896,0.459
		c0.541,0.306,0.986,0.719,1.338,1.236c0.107-0.173,0.252-0.361,0.439-0.563c0.188-0.197,0.408-0.381,0.668-0.552
		c0.262-0.168,0.557-0.308,0.893-0.416c0.336-0.109,0.707-0.165,1.113-0.165c0.645,0,1.217,0.123,1.721,0.371
		c0.508,0.247,0.936,0.586,1.289,1.012c0.35,0.427,0.619,0.927,0.803,1.5c0.184,0.571,0.273,1.181,0.273,1.831v5.541
		c0,0.214-0.045,0.375-0.137,0.486c-0.094,0.112-0.244,0.165-0.445,0.165h-1.955c-0.242,0-0.408-0.04-0.5-0.123
		c-0.09-0.08-0.135-0.24-0.135-0.478v-5.592c0-0.243-0.037-0.469-0.115-0.678c-0.074-0.208-0.182-0.392-0.316-0.547
		s-0.301-0.275-0.494-0.364c-0.195-0.086-0.412-0.131-0.648-0.131c-0.213,0-0.418,0.044-0.609,0.127
		c-0.191,0.086-0.361,0.203-0.51,0.353c-0.145,0.149-0.262,0.329-0.348,0.541c-0.09,0.21-0.131,0.444-0.131,0.699v5.541
		c0,0.214-0.049,0.375-0.141,0.486c-0.092,0.112-0.24,0.165-0.445,0.165h-0.176h-0.068h-1.711c-0.242,0-0.408-0.04-0.498-0.123
		c-0.09-0.08-0.135-0.24-0.135-0.478v-5.592c0-0.243-0.037-0.469-0.105-0.678c-0.072-0.208-0.174-0.392-0.307-0.547
		c-0.131-0.155-0.293-0.275-0.48-0.364c-0.189-0.086-0.404-0.131-0.641-0.131c-0.201,0-0.4,0.043-0.596,0.123
		c-0.195,0.082-0.371,0.198-0.525,0.348c-0.154,0.15-0.285,0.328-0.389,0.537c-0.105,0.208-0.164,0.44-0.182,0.693v5.586
		c0,0.096-0.018,0.19-0.057,0.286c-0.035,0.098-0.092,0.171-0.164,0.22c-0.072,0.046-0.143,0.078-0.207,0.096
		c-0.064,0.015-0.141,0.023-0.225,0.023h-1.912c-0.242,0-0.418-0.059-0.525-0.178c-0.107-0.117-0.16-0.275-0.16-0.474v-9.462
		c0-0.107,0.023-0.205,0.074-0.296c0.045-0.09,0.111-0.159,0.197-0.213L220.158,61.702z"/>
	<path fill="#73BC44" d="M238.623,57.928c0-0.236,0.049-0.404,0.152-0.503c0.1-0.1,0.258-0.148,0.473-0.148h1.965
		c0.197,0,0.357,0.049,0.477,0.148c0.121,0.099,0.182,0.267,0.182,0.503v1.65c0,0.067-0.016,0.141-0.047,0.22
		c-0.029,0.079-0.074,0.155-0.131,0.229c-0.055,0.072-0.123,0.135-0.207,0.181c-0.082,0.047-0.174,0.073-0.273,0.073h-1.965
		c-0.418,0-0.625-0.235-0.625-0.703V57.928z M238.623,62.211c0-0.182,0.049-0.337,0.152-0.466c0.1-0.131,0.258-0.194,0.473-0.194
		h1.938c0.068,0,0.141,0.014,0.221,0.045c0.078,0.033,0.152,0.077,0.221,0.137c0.066,0.059,0.123,0.129,0.172,0.207
		c0.049,0.079,0.072,0.169,0.072,0.271v9.435c0,0.215-0.061,0.376-0.178,0.485c-0.117,0.112-0.287,0.165-0.508,0.165h-1.938
		c-0.418,0-0.625-0.216-0.625-0.65V62.211z"/>
	<path fill="#73BC44" d="M244.783,61.702c0.07-0.063,0.148-0.103,0.232-0.119c0.08-0.017,0.158-0.025,0.23-0.025h1.279
		c0.102,0,0.188,0.018,0.262,0.057c0.072,0.034,0.135,0.084,0.186,0.146c0.051,0.062,0.092,0.131,0.125,0.21
		c0.029,0.079,0.059,0.161,0.086,0.245l0.264,1.081c0.086-0.175,0.207-0.373,0.367-0.596c0.162-0.223,0.365-0.43,0.613-0.623
		c0.25-0.195,0.545-0.358,0.885-0.491c0.342-0.131,0.74-0.197,1.191-0.197c0.641,0,1.227,0.123,1.752,0.371
		c0.523,0.247,0.969,0.586,1.34,1.012c0.369,0.427,0.656,0.927,0.859,1.5c0.203,0.571,0.305,1.181,0.305,1.831v5.541
		c0,0.214-0.047,0.375-0.143,0.486c-0.092,0.112-0.238,0.165-0.443,0.165h-1.955c-0.24,0-0.408-0.04-0.498-0.123
		c-0.09-0.08-0.135-0.24-0.135-0.478v-5.508c0-0.243-0.057-0.472-0.166-0.69c-0.107-0.216-0.256-0.41-0.436-0.574
		c-0.182-0.167-0.387-0.3-0.613-0.394c-0.227-0.097-0.463-0.146-0.697-0.146c-0.203,0-0.41,0.046-0.621,0.135
		c-0.213,0.093-0.408,0.216-0.586,0.378c-0.178,0.161-0.328,0.351-0.449,0.566c-0.117,0.216-0.188,0.454-0.205,0.707v5.501
		c0,0.096-0.018,0.19-0.059,0.286c-0.035,0.098-0.088,0.171-0.162,0.22c-0.074,0.046-0.143,0.078-0.209,0.096
		c-0.064,0.015-0.139,0.023-0.221,0.023h-1.916c-0.242,0-0.416-0.059-0.523-0.178c-0.107-0.117-0.162-0.275-0.162-0.474v-9.462
		c0-0.107,0.027-0.205,0.072-0.296c0.049-0.09,0.115-0.159,0.199-0.213L244.783,61.702z"/>
	<path fill="#73BC44" d="M265.236,71.923c0.061-0.19,0.09-0.408,0.086-0.654c-0.002-0.245-0.004-0.494-0.004-0.749
		c-0.162,0.175-0.328,0.361-0.498,0.554c-0.17,0.195-0.357,0.375-0.564,0.542c-0.205,0.167-0.438,0.303-0.697,0.41
		c-0.258,0.105-0.561,0.161-0.906,0.161c-0.76,0-1.465-0.13-2.113-0.389c-0.65-0.258-1.213-0.622-1.684-1.089
		c-0.475-0.465-0.846-1.022-1.109-1.67c-0.266-0.648-0.398-1.362-0.398-2.14c0-0.773,0.133-1.498,0.398-2.173
		c0.264-0.674,0.635-1.26,1.109-1.76c0.471-0.5,1.033-0.89,1.684-1.177c0.648-0.282,1.354-0.427,2.113-0.427
		c0.35,0,0.664,0.053,0.945,0.161c0.279,0.105,0.533,0.247,0.762,0.415c0.229,0.169,0.436,0.359,0.627,0.571
		c0.188,0.211,0.367,0.422,0.535,0.63l0.322-1.007c0.033-0.095,0.066-0.185,0.092-0.262c0.029-0.081,0.066-0.146,0.111-0.199
		c0.047-0.054,0.102-0.096,0.174-0.122c0.07-0.03,0.164-0.043,0.273-0.043h1.262c0.063,0,0.135,0.009,0.217,0.023
		c0.082,0.02,0.154,0.057,0.215,0.12c0.08,0.063,0.139,0.131,0.178,0.202c0.039,0.074,0.059,0.169,0.059,0.28v8.615
		c0,0.881-0.141,1.663-0.43,2.352c-0.287,0.688-0.682,1.271-1.18,1.744c-0.502,0.473-1.092,0.834-1.775,1.082
		c-0.682,0.247-1.416,0.374-2.197,0.374c-0.307,0-0.633-0.029-0.984-0.083c-0.348-0.053-0.697-0.133-1.045-0.239
		c-0.344-0.108-0.682-0.244-1.006-0.411c-0.326-0.166-0.611-0.36-0.859-0.58c-0.068-0.049-0.125-0.109-0.178-0.177
		c-0.051-0.07-0.086-0.144-0.105-0.229c-0.02-0.085-0.02-0.176,0-0.274c0.02-0.098,0.066-0.201,0.139-0.308l0.807-1.109
		c0.143-0.158,0.283-0.244,0.412-0.253c0.131-0.013,0.293,0.056,0.492,0.202c0.139,0.134,0.303,0.243,0.484,0.325
		c0.186,0.082,0.373,0.146,0.568,0.195c0.193,0.048,0.387,0.077,0.574,0.093c0.189,0.014,0.359,0.021,0.512,0.021
		c0.254,0,0.52-0.035,0.799-0.103c0.273-0.066,0.533-0.167,0.771-0.301c0.24-0.132,0.451-0.295,0.637-0.485
		C265.041,72.392,265.166,72.173,265.236,71.923 M260.396,66.899c0,0.377,0.057,0.729,0.172,1.052
		c0.115,0.325,0.281,0.604,0.494,0.842c0.215,0.236,0.473,0.424,0.775,0.557c0.301,0.138,0.635,0.205,1.004,0.205
		c0.359,0,0.699-0.062,1.02-0.19c0.316-0.128,0.594-0.303,0.832-0.528c0.236-0.227,0.426-0.492,0.57-0.797
		c0.145-0.302,0.225-0.635,0.242-0.989v-0.279c-0.018-0.344-0.098-0.671-0.242-0.977c-0.145-0.308-0.334-0.578-0.57-0.813
		c-0.238-0.234-0.516-0.42-0.832-0.561c-0.32-0.136-0.66-0.205-1.02-0.205c-0.369,0-0.703,0.071-1.004,0.216
		c-0.303,0.143-0.561,0.337-0.775,0.581c-0.213,0.239-0.379,0.527-0.494,0.853C260.453,66.191,260.396,66.537,260.396,66.899"/>
	<path fill="#73BC44" d="M286.086,71.011c-0.496,0.458-1.055,0.813-1.678,1.069c-0.619,0.257-1.275,0.387-1.969,0.387
		c-0.775,0-1.506-0.142-2.195-0.424c-0.686-0.282-1.291-0.674-1.809-1.173c-0.52-0.497-0.93-1.086-1.234-1.764
		c-0.305-0.677-0.457-1.412-0.457-2.207c0-0.498,0.061-0.979,0.18-1.444c0.123-0.467,0.295-0.9,0.518-1.309
		c0.223-0.407,0.492-0.778,0.813-1.119c0.318-0.344,0.676-0.634,1.07-0.877s0.822-0.432,1.287-0.567
		c0.463-0.134,0.949-0.203,1.463-0.203c0.469,0,0.922,0.062,1.363,0.188c0.439,0.12,0.854,0.298,1.238,0.524
		c0.387,0.223,0.74,0.494,1.063,0.811s0.598,0.662,0.83,1.036c0.23,0.375,0.41,0.777,0.537,1.203
		c0.127,0.425,0.191,0.865,0.191,1.314c0,0.295-0.006,0.533-0.014,0.722c-0.008,0.185-0.051,0.331-0.131,0.441
		c-0.078,0.109-0.211,0.188-0.393,0.23c-0.186,0.042-0.455,0.063-0.809,0.063h-6.094c0.057,0.362,0.172,0.664,0.344,0.904
		c0.17,0.244,0.371,0.438,0.596,0.58c0.227,0.145,0.467,0.248,0.721,0.31c0.252,0.063,0.49,0.094,0.717,0.094
		c0.205,0,0.414-0.021,0.627-0.063c0.215-0.043,0.422-0.1,0.623-0.17c0.199-0.072,0.383-0.152,0.549-0.246
		c0.164-0.093,0.303-0.192,0.402-0.293c0.09-0.072,0.168-0.128,0.23-0.163c0.066-0.038,0.137-0.056,0.209-0.056
		c0.074,0,0.148,0.025,0.225,0.076c0.076,0.052,0.16,0.123,0.258,0.22l0.896,1.017c0.063,0.071,0.104,0.139,0.119,0.197
		c0.018,0.061,0.025,0.121,0.025,0.183c0,0.112-0.031,0.209-0.094,0.293C286.244,70.875,286.17,70.948,286.086,71.011
		 M282.016,63.963c-0.221,0-0.434,0.042-0.641,0.13c-0.205,0.088-0.396,0.204-0.578,0.351c-0.18,0.147-0.342,0.314-0.486,0.498
		c-0.145,0.188-0.262,0.378-0.352,0.569h4.324c-0.119-0.22-0.246-0.424-0.385-0.61c-0.139-0.185-0.297-0.349-0.475-0.49
		c-0.178-0.143-0.381-0.251-0.607-0.33C282.586,64.002,282.32,63.963,282.016,63.963"/>
	<path fill="#73BC44" d="M289.725,59.003c0-0.182,0.045-0.333,0.135-0.458c0.09-0.123,0.248-0.187,0.467-0.187h2.072
		c0.057,0,0.115,0.019,0.178,0.048c0.061,0.03,0.119,0.074,0.174,0.131c0.053,0.057,0.098,0.124,0.135,0.204
		c0.037,0.076,0.055,0.166,0.055,0.262v12.643c0,0.215-0.059,0.376-0.182,0.485c-0.121,0.112-0.277,0.165-0.471,0.165h-1.961
		c-0.219,0-0.377-0.053-0.467-0.165c-0.09-0.109-0.135-0.271-0.135-0.485V59.003z"/>
	<path fill="#73BC44" d="M304.635,71.011c-0.496,0.458-1.055,0.813-1.676,1.069c-0.621,0.257-1.277,0.387-1.971,0.387
		c-0.771,0-1.506-0.142-2.191-0.424c-0.688-0.282-1.293-0.674-1.813-1.173c-0.518-0.497-0.93-1.086-1.234-1.764
		c-0.305-0.677-0.457-1.412-0.457-2.207c0-0.498,0.061-0.979,0.182-1.444c0.119-0.467,0.293-0.9,0.516-1.309
		c0.225-0.407,0.496-0.778,0.813-1.119c0.318-0.344,0.676-0.634,1.07-0.877s0.824-0.432,1.287-0.567
		c0.463-0.134,0.949-0.203,1.465-0.203c0.467,0,0.92,0.062,1.361,0.188c0.439,0.12,0.854,0.298,1.238,0.524
		c0.387,0.223,0.742,0.494,1.064,0.811s0.596,0.662,0.826,1.036c0.232,0.375,0.41,0.777,0.541,1.203
		c0.125,0.425,0.189,0.865,0.189,1.314c0,0.295-0.006,0.533-0.014,0.722c-0.008,0.185-0.051,0.331-0.131,0.441
		c-0.078,0.109-0.211,0.188-0.393,0.23c-0.186,0.042-0.455,0.063-0.809,0.063h-6.094c0.057,0.362,0.172,0.664,0.344,0.904
		c0.17,0.244,0.371,0.438,0.594,0.58c0.229,0.145,0.469,0.248,0.723,0.31c0.252,0.063,0.49,0.094,0.717,0.094
		c0.205,0,0.414-0.021,0.627-0.063c0.215-0.043,0.424-0.1,0.623-0.17c0.199-0.072,0.385-0.152,0.549-0.246
		c0.166-0.093,0.303-0.192,0.402-0.293c0.09-0.072,0.168-0.128,0.232-0.163c0.066-0.038,0.135-0.056,0.207-0.056
		c0.074,0,0.148,0.025,0.225,0.076c0.076,0.052,0.162,0.123,0.258,0.22l0.898,1.017c0.061,0.071,0.102,0.139,0.117,0.197
		c0.018,0.061,0.025,0.121,0.025,0.183c0,0.112-0.031,0.209-0.094,0.293C304.793,70.875,304.719,70.948,304.635,71.011
		 M300.564,63.963c-0.221,0-0.434,0.042-0.641,0.13c-0.205,0.088-0.396,0.204-0.58,0.351c-0.178,0.147-0.34,0.314-0.484,0.498
		c-0.145,0.188-0.262,0.378-0.352,0.569h4.324c-0.119-0.22-0.246-0.424-0.385-0.61c-0.139-0.185-0.295-0.349-0.475-0.49
		c-0.178-0.143-0.379-0.251-0.607-0.33C301.135,64.002,300.867,63.963,300.564,63.963"/>
	<path fill="#73BC44" d="M308.492,61.702c0.074-0.063,0.15-0.103,0.234-0.119c0.08-0.017,0.158-0.025,0.23-0.025h1.279
		c0.102,0,0.188,0.018,0.262,0.057c0.072,0.034,0.135,0.084,0.186,0.146c0.051,0.062,0.092,0.131,0.123,0.21
		s0.063,0.161,0.088,0.245l0.264,1.081c0.084-0.175,0.188-0.373,0.309-0.596c0.123-0.223,0.281-0.43,0.482-0.623
		c0.199-0.195,0.451-0.358,0.754-0.491c0.303-0.131,0.678-0.197,1.129-0.197c0.723,0,1.354,0.152,1.895,0.459
		c0.543,0.306,0.988,0.719,1.34,1.236c0.107-0.173,0.252-0.361,0.438-0.563c0.188-0.197,0.41-0.381,0.67-0.552
		c0.26-0.168,0.557-0.308,0.891-0.416c0.338-0.109,0.709-0.165,1.113-0.165c0.645,0,1.219,0.123,1.723,0.371
		c0.506,0.247,0.934,0.586,1.289,1.012c0.35,0.427,0.617,0.927,0.803,1.5c0.182,0.571,0.273,1.181,0.273,1.831v5.541
		c0,0.214-0.047,0.375-0.139,0.486c-0.092,0.112-0.242,0.165-0.443,0.165h-1.957c-0.242,0-0.408-0.04-0.5-0.123
		c-0.088-0.08-0.133-0.24-0.133-0.478v-5.592c0-0.243-0.037-0.469-0.115-0.678c-0.076-0.208-0.184-0.392-0.318-0.547
		s-0.299-0.275-0.494-0.364c-0.195-0.086-0.41-0.131-0.646-0.131c-0.215,0-0.418,0.044-0.609,0.127
		c-0.193,0.086-0.361,0.203-0.508,0.353s-0.266,0.329-0.352,0.541c-0.088,0.21-0.131,0.444-0.131,0.699v5.541
		c0,0.214-0.049,0.375-0.139,0.486c-0.094,0.112-0.242,0.165-0.447,0.165h-0.176h-0.068h-1.709c-0.244,0-0.41-0.04-0.5-0.123
		c-0.09-0.08-0.135-0.24-0.135-0.478v-5.592c0-0.243-0.035-0.469-0.105-0.678c-0.07-0.208-0.174-0.392-0.305-0.547
		c-0.133-0.155-0.293-0.275-0.482-0.364c-0.189-0.086-0.402-0.131-0.639-0.131c-0.203,0-0.4,0.043-0.598,0.123
		c-0.195,0.082-0.369,0.198-0.525,0.348c-0.152,0.15-0.283,0.328-0.387,0.537c-0.105,0.208-0.166,0.44-0.182,0.693v5.586
		c0,0.096-0.02,0.19-0.057,0.286c-0.035,0.098-0.092,0.171-0.166,0.22c-0.07,0.046-0.141,0.078-0.207,0.096
		c-0.063,0.015-0.139,0.023-0.223,0.023h-1.914c-0.24,0-0.416-0.059-0.525-0.178c-0.105-0.117-0.16-0.275-0.16-0.474v-9.462
		c0-0.107,0.025-0.205,0.074-0.296c0.047-0.09,0.113-0.159,0.199-0.213L308.492,61.702z"/>
	<path fill="#73BC44" d="M335.969,71.011c-0.498,0.458-1.053,0.813-1.676,1.069c-0.619,0.257-1.275,0.387-1.971,0.387
		c-0.773,0-1.504-0.142-2.191-0.424c-0.689-0.282-1.293-0.674-1.813-1.173c-0.518-0.497-0.93-1.086-1.234-1.764
		c-0.303-0.677-0.457-1.412-0.457-2.207c0-0.498,0.061-0.979,0.182-1.444c0.123-0.467,0.293-0.9,0.518-1.309
		c0.223-0.407,0.492-0.778,0.813-1.119c0.316-0.344,0.674-0.634,1.07-0.877s0.822-0.432,1.285-0.567
		c0.463-0.134,0.953-0.203,1.463-0.203c0.471,0,0.922,0.062,1.365,0.188c0.438,0.12,0.852,0.298,1.238,0.524
		c0.387,0.223,0.74,0.494,1.061,0.811c0.322,0.316,0.602,0.662,0.83,1.036c0.232,0.375,0.41,0.777,0.537,1.203
		c0.129,0.425,0.191,0.865,0.191,1.314c0,0.295-0.006,0.533-0.014,0.722c-0.008,0.185-0.053,0.331-0.131,0.441
		c-0.078,0.109-0.209,0.188-0.395,0.23c-0.182,0.042-0.453,0.063-0.805,0.063h-6.096c0.057,0.362,0.172,0.664,0.344,0.904
		c0.172,0.244,0.371,0.438,0.596,0.58c0.225,0.145,0.467,0.248,0.719,0.31c0.254,0.063,0.494,0.094,0.723,0.094
		c0.201,0,0.41-0.021,0.623-0.063c0.217-0.043,0.424-0.1,0.623-0.17c0.199-0.072,0.383-0.152,0.549-0.246
		c0.168-0.093,0.301-0.192,0.402-0.293c0.092-0.072,0.17-0.128,0.234-0.163c0.063-0.038,0.135-0.056,0.207-0.056
		s0.148,0.025,0.223,0.076c0.078,0.052,0.162,0.123,0.26,0.22l0.896,1.017c0.063,0.071,0.102,0.139,0.119,0.197
		c0.018,0.061,0.025,0.121,0.025,0.183c0,0.112-0.031,0.209-0.096,0.293C336.127,70.875,336.055,70.948,335.969,71.011
		 M331.898,63.963c-0.221,0-0.432,0.042-0.639,0.13c-0.205,0.088-0.398,0.204-0.58,0.351c-0.18,0.147-0.342,0.314-0.486,0.498
		c-0.145,0.188-0.262,0.378-0.352,0.569h4.326c-0.121-0.22-0.248-0.424-0.387-0.61c-0.137-0.185-0.295-0.349-0.475-0.49
		c-0.176-0.143-0.379-0.251-0.609-0.33C332.471,64.002,332.203,63.963,331.898,63.963"/>
	<path fill="#73BC44" d="M339.83,61.702c0.072-0.063,0.148-0.103,0.23-0.119c0.084-0.017,0.16-0.025,0.234-0.025h1.277
		c0.102,0,0.188,0.018,0.262,0.057c0.074,0.034,0.135,0.084,0.186,0.146c0.051,0.062,0.092,0.131,0.125,0.21
		c0.029,0.079,0.059,0.161,0.088,0.245l0.262,1.081c0.084-0.175,0.207-0.373,0.367-0.596c0.162-0.223,0.365-0.43,0.615-0.623
		c0.248-0.195,0.543-0.358,0.883-0.491c0.34-0.131,0.736-0.197,1.189-0.197c0.641,0,1.227,0.123,1.752,0.371
		c0.525,0.247,0.973,0.586,1.342,1.012c0.369,0.427,0.654,0.927,0.857,1.5c0.203,0.571,0.305,1.181,0.305,1.831v5.541
		c0,0.214-0.045,0.375-0.139,0.486c-0.094,0.112-0.242,0.165-0.443,0.165h-1.955c-0.244,0-0.41-0.04-0.498-0.123
		c-0.094-0.08-0.139-0.24-0.139-0.478v-5.508c0-0.243-0.055-0.472-0.166-0.69c-0.107-0.216-0.254-0.41-0.434-0.574
		c-0.182-0.167-0.385-0.3-0.613-0.394c-0.229-0.097-0.461-0.146-0.697-0.146c-0.203,0-0.41,0.046-0.623,0.135
		c-0.211,0.093-0.406,0.216-0.584,0.378c-0.178,0.161-0.328,0.351-0.449,0.566c-0.119,0.216-0.188,0.454-0.207,0.707v5.501
		c0,0.096-0.018,0.19-0.055,0.286c-0.037,0.098-0.092,0.171-0.166,0.22c-0.074,0.046-0.141,0.078-0.205,0.096
		c-0.064,0.015-0.141,0.023-0.225,0.023h-1.912c-0.244,0-0.42-0.059-0.525-0.178c-0.107-0.117-0.162-0.275-0.162-0.474v-9.462
		c0-0.107,0.025-0.205,0.074-0.296c0.047-0.09,0.113-0.159,0.199-0.213L339.83,61.702z"/>
	<path fill="#73BC44" d="M353.146,59.874c0-0.176,0.061-0.306,0.176-0.394c0.113-0.088,0.277-0.17,0.494-0.251l1.922-0.666
		c0.027-0.006,0.055-0.011,0.078-0.011h0.072c0.209,0,0.348,0.063,0.418,0.185c0.072,0.119,0.105,0.279,0.105,0.477l-0.006,2.666
		h1.412c0.182,0,0.328,0.055,0.439,0.16c0.113,0.108,0.17,0.27,0.17,0.482v1.633c0,0.238-0.057,0.411-0.17,0.521
		c-0.111,0.109-0.258,0.164-0.439,0.164h-1.412l0.006,6.806c0,0.215-0.061,0.374-0.186,0.485c-0.123,0.11-0.295,0.165-0.516,0.165
		h-1.912c-0.434,0-0.652-0.217-0.652-0.65l-0.008-6.806h-0.619c-0.434,0-0.648-0.227-0.648-0.685v-1.633
		c0-0.429,0.215-0.643,0.648-0.643h0.619L353.146,59.874z"/>
	<path fill="#73BC44" d="M362.033,68.954c0.15,0.152,0.318,0.28,0.496,0.385c0.176,0.105,0.346,0.19,0.51,0.255
		c0.164,0.063,0.309,0.111,0.432,0.138c0.123,0.03,0.209,0.041,0.256,0.041c0.105,0,0.242-0.003,0.408-0.011
		c0.166-0.007,0.326-0.033,0.479-0.075s0.283-0.113,0.395-0.208c0.109-0.095,0.164-0.232,0.164-0.405
		c0-0.159-0.031-0.283-0.092-0.377c-0.064-0.094-0.154-0.173-0.273-0.238c-0.117-0.063-0.264-0.121-0.436-0.172
		c-0.17-0.051-0.365-0.11-0.578-0.178c-0.678-0.181-1.234-0.397-1.676-0.651c-0.439-0.255-0.787-0.537-1.047-0.85
		c-0.256-0.315-0.434-0.652-0.535-1.011c-0.104-0.363-0.154-0.745-0.154-1.145c0-0.467,0.094-0.894,0.279-1.278
		c0.189-0.385,0.455-0.71,0.797-0.985c0.344-0.274,0.756-0.485,1.234-0.634c0.48-0.149,1.014-0.226,1.6-0.226
		c0.355,0,0.689,0.03,0.998,0.09c0.311,0.06,0.607,0.152,0.891,0.277c0.281,0.13,0.557,0.292,0.824,0.492s0.535,0.439,0.801,0.715
		c0.094,0.111,0.145,0.219,0.148,0.316c0,0.101-0.063,0.205-0.191,0.317c-0.219,0.183-0.43,0.36-0.629,0.536
		c-0.203,0.174-0.41,0.368-0.623,0.584c-0.068,0.055-0.137,0.09-0.203,0.104s-0.135,0.013-0.195-0.004
		c-0.063-0.019-0.121-0.046-0.178-0.086s-0.107-0.088-0.15-0.145c-0.199-0.219-0.424-0.368-0.68-0.443
		c-0.254-0.077-0.49-0.113-0.711-0.113c-0.277,0-0.496,0.047-0.658,0.143c-0.162,0.095-0.24,0.243-0.23,0.441
		c0.014,0.147,0.068,0.26,0.166,0.341c0.098,0.083,0.221,0.149,0.363,0.199c0.145,0.052,0.297,0.094,0.459,0.123
		c0.158,0.03,0.307,0.067,0.443,0.104c0.508,0.166,0.971,0.344,1.396,0.536c0.424,0.19,0.791,0.427,1.098,0.705
		c0.313,0.279,0.553,0.615,0.725,1.001c0.174,0.393,0.258,0.865,0.258,1.423c0,0.561-0.111,1.057-0.334,1.5
		c-0.223,0.438-0.527,0.808-0.918,1.107c-0.387,0.299-0.85,0.527-1.383,0.686s-1.105,0.237-1.723,0.237
		c-0.35,0-0.705-0.031-1.066-0.094c-0.361-0.062-0.711-0.161-1.047-0.3c-0.342-0.14-0.662-0.316-0.967-0.533
		c-0.305-0.218-0.576-0.481-0.813-0.792c-0.061-0.079-0.107-0.162-0.139-0.25c-0.033-0.088-0.045-0.173-0.043-0.258
		c0.002-0.084,0.02-0.162,0.051-0.232c0.031-0.071,0.08-0.132,0.148-0.184l1.094-1.091c0.133-0.111,0.252-0.15,0.357-0.119
		C361.734,68.7,361.869,68.796,362.033,68.954"/>
	<path fill-rule="evenodd" clip-rule="evenodd" fill="#0064A5" d="M164.933,24.427V14.426c0-2,0.296-2.297,2.28-2.297
		c1.461,0,2.922-0.005,4.383,0c1.589,0.003,2.198,0.602,2.198,2.21c0.007,8.156,0.002,16.313,0.002,24.468
		c0,3.228,0.009,6.455-0.002,9.684c-0.005,1.595-0.395,1.959-2,1.961c-1.496,0.003-2.99-0.025-4.486,0.012
		c-0.709,0.016-1.145-0.235-1.398-0.904c-0.314-0.814-0.681-1.607-1.082-2.543c-0.346,0.322-0.658,0.606-0.957,0.901
		c-2.415,2.382-5.095,3.642-8.683,2.965c-4.358-0.823-7.643-3.023-9.896-6.723c-2.288-3.756-2.707-7.889-1.799-12.15
		c1.053-4.923,3.796-8.557,8.508-10.477c3.329-1.358,6.738-1.873,9.984,0.312c0.752,0.506,1.388,1.186,2.076,1.787
		C164.28,23.823,164.492,24.024,164.933,24.427 M151.478,35.727c0,4.534,2.933,7.372,6.709,7.35
		c4.192-0.021,7.259-2.977,7.345-7.238c0.088-4.269-3.295-7.527-7.272-7.527C154.36,28.313,151.496,31.434,151.478,35.727"/>
	<path fill-rule="evenodd" clip-rule="evenodd" fill="#0064A5" d="M200.625,25.121c0.43-1.194,0.768-2.32,1.25-3.383
		c0.176-0.392,0.672-0.869,1.053-0.9c1.381-0.109,2.787-0.149,4.164-0.018c1.221,0.115,1.607,0.746,1.613,2.153
		c0.014,2.752,0.004,5.506,0.004,8.261c0,5.64,0,11.282,0,16.923c0,1.804-0.492,2.295-2.27,2.295c-1.328,0-2.66-0.078-3.977,0.023
		c-1.15,0.09-1.67-0.472-2.004-1.434c-0.217-0.619-0.486-1.216-0.779-1.924c-0.672,0.599-1.197,1.07-1.723,1.538
		c-2.228,1.98-4.699,2.796-7.753,2.233c-3.388-0.624-6.306-1.968-8.655-4.468c-3.497-3.724-4.808-8.138-4.033-13.18
		c0.651-4.233,2.717-7.612,6.202-10.077c1.945-1.378,4.136-2.17,6.512-2.576c4.16-0.713,7.341,0.769,9.843,4.021
		C200.205,24.784,200.396,24.912,200.625,25.121 M192.413,28.313c-3.674-0.063-6.772,3.085-6.735,7.41
		c0.039,4.455,2.681,7.313,6.75,7.35c4.139,0.037,7.288-3.014,7.356-7.32C199.85,31.656,196.477,28.315,192.413,28.313"/>
	<path fill-rule="evenodd" clip-rule="evenodd" fill="#0064A5" d="M220.307,25.344c0.299-0.351,0.518-0.577,0.701-0.83
		c2.121-2.896,4.912-4.168,8.553-4.019c5.762,0.235,9.875,4.998,10.633,9.993c0.166,1.101,0.277,2.222,0.281,3.333
		c0.031,4.926,0.016,9.853,0.014,14.778c-0.004,1.503-0.357,1.85-1.859,1.852c-1.734,0.001-3.467,0.001-5.199-0.002
		c-1.408-0.001-1.605-0.192-1.605-1.579c-0.006-4.927,0-9.854-0.004-14.781c-0.002-2.697-2.166-5.035-4.975-5.394
		c-2.064-0.262-4.857,1.891-5.371,4.166c-0.084,0.359-0.059,0.744-0.063,1.116c-0.002,4.756,0,9.513-0.002,14.271
		c-0.002,1.793-0.422,2.203-2.223,2.203c-1.664,0-3.328,0.005-4.992-0.002c-1.266-0.005-1.777-0.452-1.781-1.679
		c-0.012-8.697-0.012-17.397,0-26.098c0-1.086,0.693-1.711,1.813-1.718c1.156-0.01,2.314,0.035,3.469-0.017
		c0.889-0.04,1.436,0.366,1.695,1.148C219.715,23.073,219.959,24.086,220.307,25.344"/>
	<path fill-rule="evenodd" clip-rule="evenodd" fill="#0064A5" d="M97.446,37.509c0.359-1.082,0.739-2.17,1.085-3.267
		c1.267-4.01,2.529-8.023,3.778-12.041c0.283-0.911,0.831-1.289,1.803-1.266c2.07,0.053,4.146,0.084,6.213-0.004
		c1.535-0.068,1.637,0.91,1.239,1.902c-1.109,2.747-2.26,5.478-3.402,8.21c-2.325,5.561-4.671,11.111-6.98,16.68
		c-1.367,3.294-1.089,2.695-3.884,2.721c-2.854,0.031-2.828-0.004-3.917-2.666c-3.337-8.161-6.701-16.313-10.041-24.474
		c-0.524-1.283-0.452-2.522,1.545-2.375c1.588,0.115,3.195,0.07,4.789,0.011c2.476-0.09,2.294,0.438,2.91,2.278
		c1.58,4.721,3.069,9.471,4.598,14.209C97.188,37.444,97.242,37.447,97.446,37.509"/>
	<path fill-rule="evenodd" clip-rule="evenodd" fill="#0064A5" d="M254.898,39.824c0,2.82,0.004,5.639-0.004,8.46
		c-0.004,1.769-0.4,2.166-2.137,2.166c-1.561,0.002-3.125,0-4.684,0c-1.77,0-2.189-0.42-2.195-2.234c-0.004-2.547,0-5.096,0-7.644
		c0-3.158-0.023-6.32,0.014-9.478c0.008-0.799-0.164-1.15-1.063-1.131c-2.02,0.044-2.436-0.416-2.436-2.412
		c0-1.221-0.002-2.445,0-3.667c0.002-1.546,0.488-2.047,2.053-2.127c1.432-0.073,1.432-0.073,1.432-1.469
		c0-1.186,0.016-2.375-0.004-3.565c-0.016-0.952,0.334-1.622,1.275-1.954c1.805-0.638,3.582-1.375,5.408-1.941
		c1.715-0.533,2.313-0.028,2.332,1.804c0.023,2.04,0.029,4.077-0.006,6.114c-0.012,0.748,0.246,1.052,0.998,1.02
		c0.881-0.04,1.77-0.042,2.65,0.003c1.35,0.065,1.916,0.578,1.955,1.818c0.045,1.529,0.057,3.06-0.006,4.587
		c-0.057,1.314-0.641,1.804-1.941,1.812c-0.85,0.002-1.701,0.044-2.549-0.014c-0.834-0.057-1.127,0.226-1.113,1.089
		C254.924,33.98,254.898,36.904,254.898,39.824"/>
	<path fill-rule="evenodd" clip-rule="evenodd" fill="#0064A5" d="M6.198,25.735c3.921,0.243,7.805,0.694,11.636,1.635
		c3.698,0.907,7.245,2.145,10.447,4.209c2.868,1.852,5.277,4.142,6.238,7.586c0.198,0.712,0.32,1.446,0.472,2.172
		c0.71,3.378,3.44,4.926,6.196,5.502c4.163,0.872,8.198-0.004,12.243-0.918c5.823-1.314,11.278-3.632,16.735-5.963
		c0.397-0.169,1.109-0.201,1.364,0.035c0.323,0.302,0.479,0.956,0.437,1.436c-0.086,1.037-0.318,2.066-0.539,3.089
		c-0.318,1.465-1.323,2.347-2.67,2.803c-4.436,1.497-8.845,3.089-13.342,4.362c-3.708,1.05-7.546,1.702-11.435,1.47
		c-2.752-0.162-5.44-0.693-7.59-2.677c-1.464-1.352-2.259-3.102-2.501-4.981c-0.396-3.09-2.013-5.358-4.365-7.152
		c-3.438-2.628-7.447-3.968-11.622-4.936c-4.719-1.094-9.491-1.509-14.323-1.387c-1.477,0.036-2.004-0.646-1.746-2.15
		c0.128-0.73,0.323-1.451,0.538-2.161c0.496-1.626,0.987-1.972,2.704-1.973H6.198"/>
	<path fill-rule="evenodd" clip-rule="evenodd" fill="#0064A5" d="M10.669,15.775c6.447,0.785,12.714,2.16,18.213,5.878
		c2.663,1.806,4.763,4.098,5.693,7.266c0.34,1.162,0.416,2.428,0.908,3.513c1.263,2.785,3.757,3.878,6.6,4.197
		c6.177,0.694,12.008-0.94,17.748-2.911c3.212-1.104,6.336-2.465,9.515-3.678c0.396-0.154,0.869-0.195,1.295-0.16
		c0.646,0.05,1.164,0.316,1.205,1.108c0.018,0.4,0.168,0.794,0.242,1.194c0.42,2.298-0.224,3.501-2.41,4.395
		c-4.587,1.88-9.259,3.492-14.076,4.716c-3.56,0.903-7.154,1.564-10.82,1.521c-2.773-0.033-5.53-0.417-7.85-2.22
		c-1.825-1.417-2.753-3.362-3.065-5.551c-0.36-2.513-1.511-4.549-3.341-6.189c-3.441-3.086-7.656-4.585-12.063-5.652
		c-3.5-0.846-7.037-1.378-10.642-1.477c-0.43-0.014-0.87-0.148-1.288-0.283c-0.839-0.272-1.289-1.066-0.903-1.835
		c0.51-1.021,1.07-2.063,1.812-2.916C8.251,15.761,9.483,15.739,10.669,15.775"/>
	<path fill-rule="evenodd" clip-rule="evenodd" fill="#73BC44" d="M45.393,63.357c-2.74,0.141-5.409-0.149-7.805-1.639
		c-1.779-1.104-2.985-2.685-3.379-4.731c-0.584-3.025-1.561-5.802-4.042-7.829c-2.279-1.868-4.866-3.176-7.639-4.111
		c-3.95-1.337-7.999-2.226-12.175-2.45c-2.098-0.117-4.193-0.251-6.292-0.333c-1.952-0.073-2.522-0.59-2.65-2.502
		c-0.04-0.607-0.126-1.208-0.195-1.815c-0.127-1.176,0.455-1.978,1.647-1.932c2.842,0.115,5.7,0.192,8.512,0.575
		c2.974,0.404,5.934,1.008,8.836,1.768c3.782,0.996,7.279,2.678,10.315,5.197c2.557,2.123,3.92,4.876,4.506,8.157
		c0.551,3.082,2.813,4.671,5.709,5.336c3.892,0.9,7.736,0.309,11.572-0.522c4.496-0.973,8.808-2.487,13.064-4.197
		c0.716-0.287,1.42-0.615,2.154-0.844c0.311-0.095,0.812-0.104,0.997,0.081c0.17,0.167,0.156,0.721,0.007,0.979
		c-0.992,1.726-1.957,3.482-3.1,5.109c-1.205,1.718-3.127,2.389-5.05,2.99c-3.909,1.217-7.879,2.18-11.943,2.691
		C47.443,63.465,46.411,63.357,45.393,63.357"/>
	<path fill-rule="evenodd" clip-rule="evenodd" fill="#73BC44" d="M12.091,53.064c0.534,0.46,1.055,0.943,1.605,1.382
		c3.655,2.91,7.397,5.723,10.95,8.75c2.76,2.354,5.204,5.046,6.97,8.609c-1.568-0.352-2.975-0.579-4.329-0.984
		c-4.561-1.366-8.76-3.463-12.552-6.37c-4.902-3.762-8.779-8.288-10.765-14.247c-0.202-0.604-0.344-1.237-0.439-1.871
		c-0.166-1.08,0.523-1.895,1.651-1.799c2.12,0.186,4.271,0.314,6.339,0.775c3.248,0.726,6.483,1.575,9.643,2.615
		c3.784,1.246,7.211,3.196,10.128,5.979c2.506,2.394,4.002,5.354,4.723,8.684c0.526,2.435,0.799,4.923,1.005,7.478
		c-2.717-4.77-6.123-8.9-10.438-12.223c-4.289-3.305-8.99-5.806-14.235-7.159C12.262,52.812,12.178,52.937,12.091,53.064"/>
	<path fill-rule="evenodd" clip-rule="evenodd" fill="#0064A5" d="M45.168,32.949c-1.974-0.407-3.924-0.664-5.782-1.224
		c-3.303-0.997-5.017-3.523-5.506-6.771c-0.495-3.311-2.313-5.644-4.882-7.495c-3.256-2.346-6.986-3.61-10.862-4.486
		c-1.48-0.334-2.979-0.597-4.433-1.011c-1.248-0.357-1.437-1.148-0.464-1.957c1.408-1.171,2.631-2.826,4.687-2.757
		c1.312,0.047,2.65,0.396,3.908,0.816c3.952,1.321,7.575,3.202,10.399,6.397c1.632,1.85,2.286,4.064,2.771,6.406
		c0.585,2.841,2.522,4.422,5.218,5.207c3.21,0.932,6.417,0.619,9.645,0.09c5.731-0.934,11.126-2.912,16.487-5.048
		c1.379-0.551,2.35-0.267,2.988,1.205c0.19,0.431,0.332,0.882,0.506,1.319c0.702,1.764,0.35,2.675-1.446,3.285
		c-4.396,1.492-8.76,3.115-13.239,4.317C51.917,32.118,48.513,32.402,45.168,32.949"/>
	<path fill-rule="evenodd" clip-rule="evenodd" fill="#73BC44" d="M45.35,22.548c-2.782-0.029-5.466-0.374-7.891-1.887
		c-2.19-1.366-3.212-3.499-3.581-5.882c-0.459-2.975-1.956-5.225-4.254-6.989c-1.144-0.875-2.486-1.487-3.67-2.318
		c-0.634-0.445-1.118-1.099-1.67-1.658c0.578-0.358,1.115-0.811,1.737-1.05c3.223-1.242,4.649-0.43,6.715,2.157
		c1.378,1.728,1.829,3.794,2.286,5.881c0.574,2.633,2.359,4.212,4.817,5.014c3.418,1.117,6.909,0.915,10.334,0.105
		c3.766-0.891,7.485-1.993,11.223-3.012c1.066-0.291,1.927-0.035,2.609,0.838c0.563,0.72,1.134,1.434,1.657,2.183
		c0.577,0.829,0.32,1.808-0.639,2.127c-2.847,0.952-5.683,1.957-8.582,2.704c-2.644,0.678-5.36,1.075-8.056,1.536
		C47.39,22.468,46.365,22.47,45.35,22.548"/>
	<path fill-rule="evenodd" clip-rule="evenodd" fill="#73BC44" d="M45.001,12.862c-2.818-0.137-5.492-0.537-7.783-2.322
		c-2.051-1.598-2.886-3.845-3.39-6.277c-0.132-0.626-0.315-1.247-0.388-1.879c-0.04-0.341,0.025-0.969,0.167-1.006
		c0.447-0.119,0.972-0.092,1.428,0.023c0.242,0.064,0.468,0.399,0.601,0.661c1.302,2.584,3.667,3.488,6.277,3.917
		c3.119,0.512,6.196-0.044,9.289-0.461c1.169-0.156,2.501,0.101,3.618,0.534c1.137,0.441,2.122,1.302,3.137,2.032
		c0.965,0.697,0.88,1.609-0.237,1.979c-2.079,0.692-4.172,1.378-6.308,1.844C49.306,12.366,47.14,12.554,45.001,12.862"/>
	<path fill-rule="evenodd" clip-rule="evenodd" fill="#73BC44" d="M38.938,72.225c1.975-2.514,4.437-4.207,7.128-5.581
		c2.79-1.423,5.768-2.283,8.875-2.615c0.923-0.098,1.897,0.029,2.81,0.224c0.42,0.09,0.754,0.596,1.127,0.912
		c-0.268,0.278-0.491,0.632-0.809,0.829c-4.113,2.537-8.563,4.24-13.285,5.248c-1.586,0.337-3.186,0.625-4.781,0.918
		C39.654,72.223,39.294,72.204,38.938,72.225"/>
	<path fill-rule="evenodd" clip-rule="evenodd" fill="#0064A5" d="M292.943,22.494c-0.025-0.869-0.4-1.55-1.348-1.604
		c-1.447-0.082-2.916-0.176-4.354-0.041c-0.463,0.044-1.004,0.723-1.258,1.239c-0.455,0.924-0.721,1.944-1.145,3.155
		c-0.369-0.456-0.574-0.713-0.783-0.965c-2.275-2.779-5.074-4.188-8.787-3.76c-4.375,0.501-7.918,2.365-10.592,5.846
		c-1.678,2.186-2.631,4.66-2.99,7.417c-0.35,2.696,0,5.273,0.971,7.754c1.568,4.006,4.396,6.883,8.402,8.44
		c2.395,0.933,4.908,1.58,7.529,0.813c1.77-0.521,3.168-1.623,4.492-2.852c0.273-0.254,0.584-0.47,0.951-0.767
		c0.34,0.879,0.611,1.599,0.895,2.311c0.266,0.666,0.725,1.002,1.484,0.984c1.428-0.038,2.854-0.011,4.281-0.012
		c1.844,0,2.258-0.412,2.258-2.266c0.004-7.648,0.004-15.293,0.004-22.939C292.955,24.33,292.973,23.412,292.943,22.494
		 M276.648,43.078c-3.982-0.082-6.65-2.877-6.703-7.292c-0.055-4.371,3.023-7.592,6.961-7.482c3.9,0.109,7.174,3.479,7.139,7.481
		C283.959,40.163,280.561,43.161,276.648,43.078"/>
	<path fill-rule="evenodd" clip-rule="evenodd" fill="#0064A5" d="M131.637,38.528c1.901-0.008,3.803-0.016,5.699-0.102
		c1.876-0.085,2.479-0.712,2.547-2.455c0.232-5.801-2.041-10.328-6.981-13.409c-3.776-2.353-7.865-2.818-12.054-1.372
		c-5.448,1.882-8.663,5.816-9.747,11.433c-0.86,4.459-0.083,8.647,2.799,12.248c3.653,4.567,8.436,6.558,14.287,5.979
		c3.343-0.33,6.107-1.821,8.543-4.029c0.8-0.729,0.842-1.574,0.14-2.419c-0.756-0.912-1.547-1.797-2.348-2.672
		c-0.871-0.952-1.567-0.919-2.639-0.145c-2.637,1.906-5.536,2.627-8.698,1.543c-2.078-0.714-3.652-2.713-3.612-4.598h1.057
		C124.299,38.531,127.967,38.541,131.637,38.528 M126.227,27.612c2.035,0.109,4.502,2.096,5.08,4.17h-11.522
		C120.857,29.056,123.384,27.463,126.227,27.612"/>
</g>
</svg>
